<svg width="32" height="32" viewBox="0 0 32 32" fill="none" xmlns="http://www.w3.org/2000/svg">
<rect width="32" height="32" rx="16" fill="#C1C1C1" fill-opacity="0.1"/>
<path fill-rule="evenodd" clip-rule="evenodd" d="M21.7772 21.5H10.2228C8.39443 21.5 7.35076 19.6609 8.44779 18.3721C8.93344 17.8016 9.23274 17.1249 9.31328 16.4153L9.76046 12.4752C10.0016 10.3506 11.5877 8.60719 13.7301 7.87366V7.76995C13.7301 6.51629 14.7463 5.5 16 5.5C17.2537 5.5 18.2699 6.51629 18.2699 7.76995V7.87366C20.4123 8.60719 21.9984 10.3506 22.2395 12.4752L22.6867 16.4153C22.7673 17.1249 23.0666 17.8016 23.5522 18.3721C24.6492 19.6609 23.6056 21.5 21.7772 21.5ZM18.9721 23.5715C18.5147 24.6992 17.3565 25.5 16 25.5C14.6435 25.5 13.4853 24.6992 13.0279 23.5715C13.0088 23.5245 13 23.474 13 23.4233C13 23.1895 13.1895 23 13.4233 23H18.5767C18.8105 23 19 23.1895 19 23.4233C19 23.474 18.9912 23.5245 18.9721 23.5715Z" fill="#5D5FEF"/>
</svg>
